# xmcd
#
# Track frame offsets:
#	150
#	11882
#	24403
#	36683
#	49898
#	80296
#	95792
#	107639
#	122811
#	134597
#	148241
#
# Disc length: 2281 seconds
#
# Revision: 0
# Processed by: cddbd v1.5.2PL0 Copyright (c) Steve Scherf et al.
# Submitted via: EZCDAudioConverter 1.3.4.1
#
DISCID=a308e70b
DTITLE=Druids Of Stonehenge - Creation
DYEAR=1900
DGENRE=
TTITLE0=Six Feet Down
TTITLE1=Earthless
TTITLE2=I Put A Spell On You
TTITLE3=Speed
TTITLE4=Bring It On Home (Can't Get By Alone)
TTITLE5=Painted Woman
TTITLE6=Pale Dream
TTITLE7=Signed D.C.
TTITLE8=Forgot To Be Begot
TTITLE9=A Garden Where Nothing Grows
TTITLE10=It's All Over Now, Baby Blue
EXTD=
EXTT0=
EXTT1=
EXTT2=
EXTT3=
EXTT4=
EXTT5=
EXTT6=
EXTT7=
EXTT8=
EXTT9=
EXTT10=
PLAYORDER=
